<svg xmlns="http://www.w3.org/2000/svg" version="1.1" xmlns:xlink="http://www.w3.org/1999/xlink" xmlns:svgjs="http://svgjs.dev/svgjs" width="2000" height="2250" viewBox="0 0 2000 2250"><g transform="matrix(1,0,0,1,0.00014687500004129106,0)"><svg viewBox="0 0 320 360" data-background-color="#ffffff" preserveAspectRatio="xMidYMid meet" height="2250" width="2000" xmlns="http://www.w3.org/2000/svg" xmlns:xlink="http://www.w3.org/1999/xlink"><g id="tight-bounds" transform="matrix(1,0,0,1,0.000023499999997511622,0)"><svg viewBox="0 0 320 360" height="360" width="320"><g><svg></svg></g><g><svg viewBox="0 0 320 360" height="360" width="320"><g><path transform="translate(-74.99272,-51.79039) scale(4.65793,4.65793)" d="M20.6 59.9l0.8 1-0.4-1.3c-0.1-0.6-0.8 0.1-0.4 0.3M21.5 59.3c0.3 0.5 0.6 1 0.6 1.5 0 0.7 0.6 1 1.1 1.2-0.7-0.8-1.1-3-1.7-2.7M59.9 16.9c1.7 0 3.3-0.2 5.1 0.2 4.4 1.1 8.1 3.3 10.6 6.4l7 11.2c0.3 2.8 0.9 5.9 0.8 9.3 0.7 0 0.6-1 1.4-1.2-0.8 2-1.2 4.5-1.4 7.4-0.5-1.6 0-4 0.1-5.3-0.7 1.1-1.1 0.3-1.1-0.2 0.1-0.8-0.3-0.7-0.6-1-1.1-1-1.8-2.1-2.6-3.8 0.5-1.3 0.6-3.2-1-4.2-0.5-0.3-1.1-0.8-1.4-1.6-0.4-1.1-1.1-2.4-0.9-4.1 0.1-0.5-1.5 1.1-2.4 0.4-3.9-2.7-7.8-5.8-12.5-8.4-2.5 0-4.3-0.9-5.2-2-0.8-1-0.2-2.3 1-2.4 0.7 0 1.5-0.2 2.1 0.2 0.1-0.4 0.5-0.9 1-0.9M50 14.6l0.2 0.1c1 0.2 1.5 1.6 2.6 1.1 0 0.7 0.1 1.4-0.1 1.9-0.3 0.8-1.2 0.8-1.9 0.8-6.7-0.4-10.6 2.4-14.7 4.8-1.1 0.7-2.3 1.2-3.2 2.1-4.3 4-9 7.7-10.1 15.1l-0.9 8.2c-0.1 0.9-1.1 1.8-0.9 2.9l0.7 4.9c-0.7-0.7-1.1 0.2-0.9 0.6 0.1 0.3 0.5 1.3 1.1 0.4 0.8 1.5 1.6 4.4 2.7 5.7 3.4 4 7.8 7.6 11.4 11.2 0.9-0.2 1.6-0.2 1.8-0.8 0.3 0.6-0.3 1.2-0.8 1.3 1.6 1 3.4 1.9 5.8 2.1 3.1 0.2 6 0.7 8.7 1.4 1.4-0.4 2.8-0.6 4.3-0.7 0.5 0 0.8-0.8 1.4-1l0.1-1c0.6 0.9 0.5-0.3 0.1-0.9 0.7 0.6 0.9 1.1 1.2 1.5 0-0.3 0.8-1.4 0.8-0.1l0.2-1.3c0.3-0.2 0.4 1.1 0.7 0.2 0.3-0.9 0.9-0.2 1.5-0.5-0.2 0.4-0.1 1.2 0.6 0.7l0.8-0.7c0.5 1.2 1.3 0.7 1.7 0.5 4.4-2.8 8.8-6.1 13-9.4l-0.1 1.3 0.5-1.6c0.5 0.5 0.9 0.1 1.1-0.2 0.6-1 1.4-2 2.7-2.9-1.6 4.3-3.5 7.7-5.9 10.5l-1 1.2c0 0.7-0.2 1.6-1 1.7-0.4 0.1-1.2-0.2-1.8 0.4-0.3 0.4 0.7 1.2-0.1 0.6-0.7-0.5-1.4 0-2.2 0.2-0.6 0.2 0.4 0.8 0.6 1.2 0.2 0.4 0.4 0.8 0.3 1.3l-1.1-1.2c-1.3 0.7-2.1 2-3.2 3-0.5 0.4-0.3 1.1-0.3 1.7-0.7 0-1.5-0.2-1.9 0.2-0.3 0.4-0.2 1-0.2 1.6-1-0.1-1.1-1.6-2-1.3-0.9 0.2-1.9 0.3-2.7 0.8 0.6 1.2-1 0.5-0.8 0.7-1.5-0.9-2.8-1.6-4.4-1-3.4-1.1-7.6-0.6-10.7-0.2 0-0.5 0.1-1-0.1-1.1-0.2 0.5-0.8 0.3-0.7 0.3-1.9-1.3-3.8-2.1-5.8-3.2-1.8 0.2-3.5-0.7-4-1.2-1.4-1.3-3-0.6-4.3-0.9-2.8-0.7-3.8-3.6-4.1-5.6-0.2-1-1-1.4-1.3-1.3-1.3-4.2-3.3-8-4.9-11.9-0.4-1-0.3-2-0.3-3.1 0.5 0.2 1 0.1 0.9-0.6-0.5-3.3-1.7-5.8-3-8.2 0.7-3.4 0.8-7.4 2.4-10.4 1.4-2.7 4-4.1 5.8-6.4 0.6-0.8 0.6-1.9 1.2-2.6 2-2 4-4.1 6.2-5.9 1-0.8 2.2 0 3.7-0.3 0.5-1.8 2.5-3.4 4.4-2.9 0.8 0.2 2.4-1.9 2.9-2.1 0.8-0.3 0.4 0.8 0.4 1.5 1.9-1.5 4.5-2.3 6.9-3.2" fill="#8d021f" fill-rule="nonzero" stroke="none" stroke-width="1" stroke-linecap="butt" stroke-linejoin="miter" stroke-miterlimit="10" stroke-dasharray="" stroke-dashoffset="0" font-family="none" font-weight="none" font-size="none" text-anchor="none" style="mix-blend-mode: normal" data-fill-palette-color="tertiary"></path></g><g transform="matrix(1,0,0,1,64,135.80302231982495)"><svg viewBox="0 0 192 88.39395536035008" height="88.39395536035008" width="192"><g><svg viewBox="0 0 192 88.39395536035008" height="88.39395536035008" width="192"><g><svg viewBox="0 0 192 88.39395536035008" height="88.39395536035008" width="192"><g transform="matrix(1,0,0,1,0,52.64360465812068)"><svg viewBox="0 0 192 35.7503507022294" height="35.7503507022294" width="192"><g id="textblocktransform"><svg viewBox="0 0 192 35.7503507022294" height="35.7503507022294" width="192" id="textblock"><g><svg viewBox="0 0 192 22.180175897314" height="22.180175897314" width="192"><g transform="matrix(1,0,0,1,0,0)"><svg width="192" viewBox="4.5 -37 420.66 48.6" height="22.180175897314" data-palette-color="#8d021f"><path d="M29.55-2.8L26.25 0.6 9.25-16.1 9.25 0 4.5 0 4.5-35 9.25-35 9.25-19.05 24.15-35.15 27.35-32.2 13.7-18 29.55-2.8ZM44 0.6L44 0.6Q40.75 0.6 38.1-1.05 35.45-2.7 33.87-5.73 32.3-8.75 32.3-12.85L32.3-12.85Q32.3-16.75 33.87-19.85 35.45-22.95 38.22-24.78 41-26.6 44.6-26.6L44.6-26.6Q46.85-26.6 48.67-25.83 50.5-25.05 51.85-23.9L51.85-23.9 51.85-26 55.95-26 55.95-6.3Q55.95-4.4 56.87-3.83 57.8-3.25 58.9-3.25L58.9-3.25 57.95 0.25Q53.15 0.25 52.15-3.65L52.15-3.65Q51-2.05 49.02-0.73 47.05 0.6 44 0.6ZM45-3.4L45-3.4Q46.9-3.4 48.6-4.33 50.3-5.25 51.45-6.65L51.45-6.65 51.45-20.6Q50.1-21.55 48.47-22.13 46.85-22.7 45.05-22.7L45.05-22.7Q42.65-22.7 40.82-21.48 39-20.25 37.95-18.07 36.9-15.9 36.9-13L36.9-13Q36.9-10.2 37.95-8.03 39-5.85 40.85-4.63 42.7-3.4 45-3.4ZM69.4 0L64.9 0 64.9-37 69.4-37 69.4-21.85Q70.8-23.9 72.95-25.25 75.09-26.6 78-26.6L78-26.6Q82.4-26.6 84.57-23.95 86.75-21.3 86.75-16.95L86.75-16.95 86.75 0 82.25 0 82.25-16.45Q82.25-19.25 80.95-20.95 79.65-22.65 77.3-22.65L77.3-22.65Q75-22.65 72.92-21.03 70.84-19.4 69.4-17.2L69.4-17.2 69.4 0ZM104.44 0.6L104.44 0.6Q101.19 0.6 98.54-1.05 95.89-2.7 94.32-5.73 92.74-8.75 92.74-12.85L92.74-12.85Q92.74-16.75 94.32-19.85 95.89-22.95 98.67-24.78 101.44-26.6 105.04-26.6L105.04-26.6Q107.29-26.6 109.12-25.83 110.94-25.05 112.29-23.9L112.29-23.9 112.29-26 116.39-26 116.39-6.3Q116.39-4.4 117.32-3.83 118.24-3.25 119.34-3.25L119.34-3.25 118.39 0.25Q113.59 0.25 112.59-3.65L112.59-3.65Q111.44-2.05 109.47-0.73 107.49 0.6 104.44 0.6ZM105.44-3.4L105.44-3.4Q107.34-3.4 109.04-4.33 110.74-5.25 111.89-6.65L111.89-6.65 111.89-20.6Q110.54-21.55 108.92-22.13 107.29-22.7 105.49-22.7L105.49-22.7Q103.09-22.7 101.27-21.48 99.44-20.25 98.39-18.07 97.34-15.9 97.34-13L97.34-13Q97.34-10.2 98.39-8.03 99.44-5.85 101.29-4.63 103.14-3.4 105.44-3.4ZM150.94 0.4L150.94 0.4Q147.89 0.4 145.16 0.25 142.44 0.1 140.84-0.1L140.84-0.1 140.84-34.9Q142.59-35.1 145.19-35.25 147.79-35.4 151.14-35.4L151.14-35.4Q157.54-35.4 160.99-32.98 164.44-30.55 164.44-26.4L164.44-26.4Q164.44-23.65 162.96-21.73 161.49-19.8 158.69-18.55L158.69-18.55Q162.09-17.35 163.84-15.23 165.59-13.1 165.59-10L165.59-10Q165.59-5.25 161.84-2.43 158.09 0.4 150.94 0.4ZM145.59-31.3L145.59-19.9 151.09-19.9Q155.04-19.9 157.36-21.55 159.69-23.2 159.69-25.8L159.69-25.8Q159.69-28.6 157.39-30.08 155.09-31.55 151.09-31.55L151.09-31.55Q149.44-31.55 148.09-31.48 146.74-31.4 145.59-31.3L145.59-31.3ZM151.29-3.55L151.29-3.55Q155.74-3.55 158.24-5.15 160.74-6.75 160.74-9.8L160.74-9.8Q160.74-12.8 158.29-14.5 155.84-16.2 151.29-16.2L151.29-16.2 145.59-16.2 145.59-3.85Q148.24-3.55 151.29-3.55ZM181.78 0.6L181.78 0.6Q178.53 0.6 175.89-1.05 173.24-2.7 171.66-5.73 170.09-8.75 170.09-12.85L170.09-12.85Q170.09-16.75 171.66-19.85 173.24-22.95 176.01-24.78 178.78-26.6 182.39-26.6L182.39-26.6Q184.64-26.6 186.46-25.83 188.29-25.05 189.64-23.9L189.64-23.9 189.64-26 193.74-26 193.74-6.3Q193.74-4.4 194.66-3.83 195.59-3.25 196.69-3.25L196.69-3.25 195.74 0.25Q190.94 0.25 189.94-3.65L189.94-3.65Q188.79-2.05 186.81-0.73 184.84 0.6 181.78 0.6ZM182.78-3.4L182.78-3.4Q184.69-3.4 186.39-4.33 188.09-5.25 189.24-6.65L189.24-6.65 189.24-20.6Q187.89-21.55 186.26-22.13 184.64-22.7 182.84-22.7L182.84-22.7Q180.44-22.7 178.61-21.48 176.78-20.25 175.74-18.07 174.69-15.9 174.69-13L174.69-13Q174.69-10.2 175.74-8.03 176.78-5.85 178.64-4.63 180.49-3.4 182.78-3.4ZM209.68 0.6L209.68 0.6Q206.73 0.6 204.36-0.15 201.98-0.9 200.43-2.1L200.43-2.1 202.33-5.85Q203.63-4.75 205.61-4.03 207.58-3.3 209.83-3.3L209.83-3.3Q212.63-3.3 214.06-4.23 215.48-5.15 215.48-6.6L215.48-6.6Q215.48-7.65 214.96-8.45 214.43-9.25 213.03-10.03 211.63-10.8 208.98-11.7L208.98-11.7Q205.33-12.95 203.51-14.68 201.68-16.4 201.68-19.45L201.68-19.45Q201.68-22.45 204.31-24.53 206.93-26.6 211.58-26.6L211.58-26.6Q214.08-26.6 216.03-26.08 217.98-25.55 219.53-24.75L219.53-24.75 218.28-21.05Q216.93-21.85 215.21-22.35 213.48-22.85 211.38-22.85L211.38-22.85Q208.78-22.85 207.43-21.8 206.08-20.75 206.08-19.5L206.08-19.5Q206.08-18.3 207.13-17.45 208.18-16.6 211.23-15.6L211.23-15.6Q216.18-13.95 218.13-11.95 220.08-9.95 220.08-6.95L220.08-6.95Q220.08-3.45 217.26-1.43 214.43 0.6 209.68 0.6ZM230.58 0L226.08 0 226.08-26 230.43-26 230.43-21.65Q231.83-23.75 234.01-25.18 236.18-26.6 239.18-26.6L239.18-26.6Q243.58-26.6 245.76-23.95 247.93-21.3 247.93-16.95L247.93-16.95 247.93 0 243.43 0 243.43-16.45Q243.43-19.25 242.11-20.95 240.78-22.65 238.43-22.65L238.43-22.65Q236.13-22.65 234.08-21.03 232.03-19.4 230.58-17.2L230.58-17.2 230.58 0ZM266.08 0.6L266.08 0.6Q260.48 0.6 257.2-2.98 253.93-6.55 253.93-13L253.93-13Q253.93-16.9 255.4-19.98 256.88-23.05 259.53-24.83 262.18-26.6 265.68-26.6L265.68-26.6Q269.43-26.6 271.9-24.98 274.38-23.35 275.63-20.6 276.88-17.85 276.88-14.55L276.88-14.55Q276.88-12.8 276.73-11.15L276.73-11.15 258.53-11.15Q258.98-7.5 261.08-5.45 263.18-3.4 266.63-3.4L266.63-3.4Q268.88-3.4 270.68-3.88 272.48-4.35 274.13-5.1L274.13-5.1 275.18-1.25Q273.38-0.45 271.13 0.08 268.88 0.6 266.08 0.6ZM258.48-14.8L258.48-14.8 272.73-14.8Q272.73-18.6 270.83-20.65 268.93-22.7 265.58-22.7L265.58-22.7Q262.68-22.7 260.78-20.68 258.88-18.65 258.48-14.8ZM283.52 11.6L283.52 11.6Q282.02 11.6 280.9 11.3 279.77 11 279.13 10.6L279.13 10.6 280.13 6.85Q280.73 7.2 281.63 7.45 282.52 7.7 283.63 7.7L283.63 7.7Q285.73 7.7 287.38 6.35 289.02 5 290.52 1.05L290.52 1.05 291.68-1.95 289.27-1.95 279.13-24.8 283.13-26.6 292.82-4.95 300.38-26.4 304.52-24.8 294.98 1.3Q293.52 5.3 291.82 7.55 290.13 9.8 288.07 10.7 286.02 11.6 283.52 11.6ZM352.92-1.25L348.57 0.5 344.67-9.5 328.47-9.5 324.57 0.4 320.52-1.25 334.22-35 339.42-35 352.92-1.25ZM336.57-30.3L329.97-13.5 343.12-13.5 336.57-30.3ZM367.37 0.6L367.37 0.6Q364.12 0.6 361.47-1.05 358.82-2.7 357.24-5.73 355.67-8.75 355.67-12.85L355.67-12.85Q355.67-16.75 357.24-19.85 358.82-22.95 361.59-24.78 364.37-26.6 367.97-26.6L367.97-26.6Q370.22-26.6 372.04-25.83 373.87-25.05 375.22-23.9L375.22-23.9 375.22-26 379.32-26 379.32-6.3Q379.32-4.4 380.24-3.83 381.17-3.25 382.27-3.25L382.27-3.25 381.32 0.25Q376.52 0.25 375.52-3.65L375.52-3.65Q374.37-2.05 372.39-0.73 370.42 0.6 367.37 0.6ZM368.37-3.4L368.37-3.4Q370.27-3.4 371.97-4.33 373.67-5.25 374.82-6.65L374.82-6.65 374.82-20.6Q373.47-21.55 371.84-22.13 370.22-22.7 368.42-22.7L368.42-22.7Q366.02-22.7 364.19-21.48 362.37-20.25 361.32-18.07 360.27-15.9 360.27-13L360.27-13Q360.27-10.2 361.32-8.03 362.37-5.85 364.22-4.63 366.07-3.4 368.37-3.4ZM384.12 11.6L384.12 11.6Q381.06 11.6 379.01 10.45L379.01 10.45 380.12 6.7Q380.76 7.1 381.69 7.4 382.62 7.7 383.56 7.7L383.56 7.7Q387.81 7.7 387.81 2.4L387.81 2.4 387.81-26 392.31-26 392.31 2.85Q392.31 5.9 391.21 7.83 390.12 9.75 388.26 10.68 386.41 11.6 384.12 11.6ZM389.96-30.45L389.96-30.45Q388.66-30.45 387.74-31.4 386.81-32.35 386.81-33.6L386.81-33.6Q386.81-35.05 387.66-35.9 388.51-36.75 389.96-36.75L389.96-36.75Q391.26-36.75 392.19-35.83 393.12-34.9 393.12-33.6L393.12-33.6Q393.12-32.2 392.26-31.33 391.41-30.45 389.96-30.45ZM410.26 0.6L410.26 0.6Q407.01 0.6 404.36-1.05 401.71-2.7 400.14-5.73 398.56-8.75 398.56-12.85L398.56-12.85Q398.56-16.75 400.14-19.85 401.71-22.95 404.49-24.78 407.26-26.6 410.86-26.6L410.86-26.6Q413.11-26.6 414.94-25.83 416.76-25.05 418.11-23.9L418.11-23.9 418.11-26 422.21-26 422.21-6.3Q422.21-4.4 423.14-3.83 424.06-3.25 425.16-3.25L425.16-3.25 424.21 0.25Q419.41 0.25 418.41-3.65L418.41-3.65Q417.26-2.05 415.29-0.73 413.31 0.6 410.26 0.6ZM411.26-3.4L411.26-3.4Q413.16-3.4 414.86-4.33 416.56-5.25 417.71-6.65L417.71-6.65 417.71-20.6Q416.36-21.55 414.74-22.13 413.11-22.7 411.31-22.7L411.31-22.7Q408.91-22.7 407.09-21.48 405.26-20.25 404.21-18.07 403.16-15.9 403.16-13L403.16-13Q403.16-10.2 404.21-8.03 405.26-5.85 407.11-4.63 408.96-3.4 411.26-3.4Z" opacity="1" transform="matrix(1,0,0,1,0,0)" fill="#8d021f" class="wordmark-text-0" data-fill-palette-color="primary" id="text-0"></path></svg></g></svg></g><g transform="matrix(1,0,0,1,0,25.41679588495365)"><svg viewBox="0 0 192 10.333554817275749" height="10.333554817275749" width="192"><g transform="matrix(1,0,0,1,0,0)"><svg width="192" viewBox="0.5 -37 902.91 48.6" height="10.333554817275749" data-palette-color="#8d021f"><path d="M17.4 0L12.65 0 12.65-13.3 0.5-33.05 4.5-35.45 15.2-17.7 25.7-35.25 29.45-33.05 17.4-13.3 17.4 0ZM41.65 0.6L41.65 0.6Q37.95 0.6 35-1.13 32.05-2.85 30.37-5.93 28.7-9 28.7-13L28.7-13Q28.7-17.2 30.4-20.25 32.1-23.3 35.05-24.95 38-26.6 41.65-26.6L41.65-26.6Q45.3-26.6 48.22-24.95 51.15-23.3 52.87-20.28 54.6-17.25 54.6-13.1L54.6-13.1Q54.6-8.95 52.9-5.88 51.2-2.8 48.27-1.1 45.35 0.6 41.65 0.6ZM41.65-3.4L41.65-3.4Q45.6-3.4 47.8-6.08 50-8.75 50-13L50-13Q50-15.6 48.9-17.78 47.8-19.95 45.92-21.28 44.05-22.6 41.65-22.6L41.65-22.6Q37.7-22.6 35.5-20 33.3-17.4 33.3-13.1L33.3-13.1Q33.3-10.5 34.4-8.28 35.5-6.05 37.37-4.73 39.25-3.4 41.65-3.4ZM69.09 0.6L69.09 0.6Q66.84 0.6 64.84-0.35 62.85-1.3 61.6-3.43 60.35-5.55 60.35-9.1L60.35-9.1 60.35-26 64.84-26 64.84-9.7Q64.84-6.65 66.15-5.03 67.45-3.4 69.95-3.4L69.95-3.4Q72-3.4 73.92-4.23 75.84-5.05 77.34-6.45L77.34-6.45 77.34-26 81.84-26 81.84-6.75Q81.84-4.6 82.77-3.93 83.7-3.25 84.8-3.25L84.8-3.25 83.84 0.25Q79.2 0.25 78.09-3.45L78.09-3.45Q76.34-1.65 74.05-0.53 71.75 0.6 69.09 0.6ZM95.29 0L90.79 0 90.79-26 95.14-26 95.14-20.35Q95.79-22 96.89-23.43 97.99-24.85 99.64-25.73 101.29-26.6 103.49-26.6L103.49-26.6Q104.24-26.6 104.99-26.53 105.74-26.45 106.24-26.3L106.24-26.3 104.89-21.65Q103.94-22.05 102.64-22.05L102.64-22.05Q100.79-22.05 99.12-21 97.44-19.95 96.37-17.75 95.29-15.55 95.29-12.15L95.29-12.15 95.29 0ZM134.94 0.6L134.94 0.6Q131.29 0.6 128.29-0.38 125.29-1.35 123.24-2.95L123.24-2.95 125.64-6.95Q127.44-5.45 129.69-4.5 131.94-3.55 134.94-3.55L134.94-3.55Q138.54-3.55 140.64-5.05 142.74-6.55 142.74-9.1L142.74-9.1Q142.74-10.55 142.14-11.68 141.54-12.8 139.81-13.88 138.09-14.95 134.74-16.2L134.74-16.2Q131.14-17.6 128.99-19.03 126.84-20.45 125.91-22.28 124.99-24.1 124.99-26.6L124.99-26.6Q124.99-29.1 126.36-31.13 127.74-33.15 130.41-34.38 133.09-35.6 136.89-35.6L136.89-35.6Q139.99-35.6 142.46-34.98 144.94-34.35 147.29-33.2L147.29-33.2 145.54-29.15Q143.84-30.15 141.56-30.83 139.29-31.5 136.79-31.5L136.79-31.5Q133.49-31.5 131.59-30.2 129.69-28.9 129.69-26.85L129.69-26.85Q129.69-25.55 130.24-24.55 130.79-23.55 132.41-22.6 134.04-21.65 137.29-20.45L137.29-20.45Q141.19-19 143.46-17.4 145.74-15.8 146.69-13.93 147.64-12.05 147.64-9.65L147.64-9.65Q147.64-6.4 146.01-4.1 144.39-1.8 141.51-0.6 138.64 0.6 134.94 0.6ZM163.24 0.6L163.24 0.6Q159.49 0.6 157.31-1.88 155.14-4.35 155.14-8.95L155.14-8.95 155.14-21.15 150.64-21.15 150.64-25.05 155.24-25.05 156.19-33.25 159.64-33.25 159.64-25.05 166.84-25.05 166.84-21.15 159.64-21.15 159.64-8.6Q159.64-5.7 160.86-4.55 162.09-3.4 163.79-3.4L163.79-3.4Q165.04-3.4 166.16-3.8 167.29-4.2 168.24-4.75L168.24-4.75 169.49-1.15Q168.49-0.55 166.79 0.03 165.09 0.6 163.24 0.6ZM182.93 0.6L182.93 0.6Q179.68 0.6 177.03-1.05 174.38-2.7 172.81-5.73 171.23-8.75 171.23-12.85L171.23-12.85Q171.23-16.75 172.81-19.85 174.38-22.95 177.16-24.78 179.93-26.6 183.53-26.6L183.53-26.6Q185.78-26.6 187.61-25.83 189.43-25.05 190.78-23.9L190.78-23.9 190.78-26 194.88-26 194.88-6.3Q194.88-4.4 195.81-3.83 196.73-3.25 197.83-3.25L197.83-3.25 196.88 0.25Q192.08 0.25 191.08-3.65L191.08-3.65Q189.93-2.05 187.96-0.73 185.98 0.6 182.93 0.6ZM183.93-3.4L183.93-3.4Q185.83-3.4 187.53-4.33 189.23-5.25 190.38-6.65L190.38-6.65 190.38-20.6Q189.03-21.55 187.41-22.13 185.78-22.7 183.98-22.7L183.98-22.7Q181.58-22.7 179.76-21.48 177.93-20.25 176.88-18.07 175.83-15.9 175.83-13L175.83-13Q175.83-10.2 176.88-8.03 177.93-5.85 179.78-4.63 181.63-3.4 183.93-3.4ZM203.48 11.6L203.48 11.6Q201.98 11.6 200.86 11.3 199.73 11 199.08 10.6L199.08 10.6 200.08 6.85Q200.68 7.2 201.58 7.45 202.48 7.7 203.58 7.7L203.58 7.7Q205.68 7.7 207.33 6.35 208.98 5 210.48 1.05L210.48 1.05 211.63-1.95 209.23-1.95 199.08-24.8 203.08-26.6 212.78-4.95 220.33-26.4 224.48-24.8 214.93 1.3Q213.48 5.3 211.78 7.55 210.08 9.8 208.03 10.7 205.98 11.6 203.48 11.6ZM224.93 8L224.93 8 222.48 6.6Q224.48 4.05 225.7 1.45 226.93-1.15 227.58-4.5L227.58-4.5 231.98-3.25Q231.48 0.55 229.6 3.4 227.73 6.25 224.93 8ZM268.37 0L263.62 0 263.62-13.3 251.47-33.05 255.47-35.45 266.17-17.7 276.67-35.25 280.42-33.05 268.37-13.3 268.37 0ZM292.62 0.6L292.62 0.6Q288.92 0.6 285.97-1.13 283.02-2.85 281.35-5.93 279.67-9 279.67-13L279.67-13Q279.67-17.2 281.37-20.25 283.07-23.3 286.02-24.95 288.97-26.6 292.62-26.6L292.62-26.6Q296.27-26.6 299.19-24.95 302.12-23.3 303.85-20.28 305.57-17.25 305.57-13.1L305.57-13.1Q305.57-8.95 303.87-5.88 302.17-2.8 299.25-1.1 296.32 0.6 292.62 0.6ZM292.62-3.4L292.62-3.4Q296.57-3.4 298.77-6.08 300.97-8.75 300.97-13L300.97-13Q300.97-15.6 299.87-17.78 298.77-19.95 296.9-21.28 295.02-22.6 292.62-22.6L292.62-22.6Q288.67-22.6 286.47-20 284.27-17.4 284.27-13.1L284.27-13.1Q284.27-10.5 285.37-8.28 286.47-6.05 288.35-4.73 290.22-3.4 292.62-3.4ZM320.07 0.6L320.07 0.6Q317.82 0.6 315.82-0.35 313.82-1.3 312.57-3.43 311.32-5.55 311.32-9.1L311.32-9.1 311.32-26 315.82-26 315.82-9.7Q315.82-6.65 317.12-5.03 318.42-3.4 320.92-3.4L320.92-3.4Q322.97-3.4 324.89-4.23 326.82-5.05 328.32-6.45L328.32-6.45 328.32-26 332.82-26 332.82-6.75Q332.82-4.6 333.74-3.93 334.67-3.25 335.77-3.25L335.77-3.25 334.82 0.25Q330.17 0.25 329.07-3.45L329.07-3.45Q327.32-1.65 325.02-0.53 322.72 0.6 320.07 0.6ZM346.26 0L341.76 0 341.76-26 346.12-26 346.12-20.35Q346.76-22 347.87-23.43 348.96-24.85 350.62-25.73 352.26-26.6 354.46-26.6L354.46-26.6Q355.21-26.6 355.96-26.53 356.71-26.45 357.21-26.3L357.21-26.3 355.87-21.65Q354.91-22.05 353.62-22.05L353.62-22.05Q351.76-22.05 350.09-21 348.41-19.95 347.34-17.75 346.26-15.55 346.26-12.15L346.26-12.15 346.26 0ZM388.86 0L382.96 0 373.46-33.85 378.16-35.35 386.06-5.05 393.51-31.35 399.46-31.35 406.86-5.05 414.71-35.2 419.11-33.85 409.66 0 403.76 0 396.36-26.3 388.86 0ZM432.31 0.6L432.31 0.6Q429.06 0.6 426.41-1.05 423.76-2.7 422.18-5.73 420.61-8.75 420.61-12.85L420.61-12.85Q420.61-16.75 422.18-19.85 423.76-22.95 426.53-24.78 429.31-26.6 432.91-26.6L432.91-26.6Q435.16-26.6 436.98-25.83 438.81-25.05 440.16-23.9L440.16-23.9 440.16-26 444.26-26 444.26-6.3Q444.26-4.4 445.18-3.83 446.11-3.25 447.21-3.25L447.21-3.25 446.26 0.25Q441.46 0.25 440.46-3.65L440.46-3.65Q439.31-2.05 437.33-0.73 435.36 0.6 432.31 0.6ZM433.31-3.4L433.31-3.4Q435.21-3.4 436.91-4.33 438.61-5.25 439.76-6.65L439.76-6.65 439.76-20.6Q438.41-21.55 436.78-22.13 435.16-22.7 433.36-22.7L433.36-22.7Q430.96-22.7 429.13-21.48 427.31-20.25 426.26-18.07 425.21-15.9 425.21-13L425.21-13Q425.21-10.2 426.26-8.03 427.31-5.85 429.16-4.63 431.01-3.4 433.31-3.4ZM452.86 11.6L452.86 11.6Q451.36 11.6 450.23 11.3 449.11 11 448.46 10.6L448.46 10.6 449.46 6.85Q450.06 7.2 450.96 7.45 451.86 7.7 452.96 7.7L452.96 7.7Q455.06 7.7 456.71 6.35 458.36 5 459.86 1.05L459.86 1.05 461.01-1.95 458.61-1.95 448.46-24.8 452.46-26.6 462.16-4.95 469.71-26.4 473.86-24.8 464.31 1.3Q462.86 5.3 461.16 7.55 459.46 9.8 457.41 10.7 455.36 11.6 452.86 11.6ZM512.85-15.1L495.85-15.1 495.85-19.2 512.85-19.2 512.85-15.1ZM548.94 0.4L548.94 0.4Q545.89 0.4 543.17 0.25 540.44 0.1 538.84-0.1L538.84-0.1 538.84-34.9Q540.59-35.1 543.19-35.25 545.79-35.4 549.14-35.4L549.14-35.4Q555.54-35.4 558.99-32.98 562.44-30.55 562.44-26.4L562.44-26.4Q562.44-23.65 560.97-21.73 559.49-19.8 556.69-18.55L556.69-18.55Q560.09-17.35 561.84-15.23 563.59-13.1 563.59-10L563.59-10Q563.59-5.25 559.84-2.43 556.09 0.4 548.94 0.4ZM543.59-31.3L543.59-19.9 549.09-19.9Q553.04-19.9 555.37-21.55 557.69-23.2 557.69-25.8L557.69-25.8Q557.69-28.6 555.39-30.08 553.09-31.55 549.09-31.55L549.09-31.55Q547.44-31.55 546.09-31.48 544.74-31.4 543.59-31.3L543.59-31.3ZM549.29-3.55L549.29-3.55Q553.74-3.55 556.24-5.15 558.74-6.75 558.74-9.8L558.74-9.8Q558.74-12.8 556.29-14.5 553.84-16.2 549.29-16.2L549.29-16.2 543.59-16.2 543.59-3.85Q546.24-3.55 549.29-3.55ZM580.79 0.6L580.79 0.6Q577.09 0.6 574.14-1.13 571.19-2.85 569.52-5.93 567.84-9 567.84-13L567.84-13Q567.84-17.2 569.54-20.25 571.24-23.3 574.19-24.95 577.14-26.6 580.79-26.6L580.79-26.6Q584.44-26.6 587.37-24.95 590.29-23.3 592.02-20.28 593.74-17.25 593.74-13.1L593.74-13.1Q593.74-8.95 592.04-5.88 590.34-2.8 587.42-1.1 584.49 0.6 580.79 0.6ZM580.79-3.4L580.79-3.4Q584.74-3.4 586.94-6.08 589.14-8.75 589.14-13L589.14-13Q589.14-15.6 588.04-17.78 586.94-19.95 585.07-21.28 583.19-22.6 580.79-22.6L580.79-22.6Q576.84-22.6 574.64-20 572.44-17.4 572.44-13.1L572.44-13.1Q572.44-10.5 573.54-8.28 574.64-6.05 576.52-4.73 578.39-3.4 580.79-3.4ZM610.69 0.6L610.69 0.6Q606.99 0.6 604.04-1.13 601.09-2.85 599.41-5.93 597.74-9 597.74-13L597.74-13Q597.74-17.2 599.44-20.25 601.14-23.3 604.09-24.95 607.04-26.6 610.69-26.6L610.69-26.6Q614.34-26.6 617.26-24.95 620.19-23.3 621.91-20.28 623.64-17.25 623.64-13.1L623.64-13.1Q623.64-8.95 621.94-5.88 620.24-2.8 617.31-1.1 614.39 0.6 610.69 0.6ZM610.69-3.4L610.69-3.4Q614.64-3.4 616.84-6.08 619.04-8.75 619.04-13L619.04-13Q619.04-15.6 617.94-17.78 616.84-19.95 614.96-21.28 613.09-22.6 610.69-22.6L610.69-22.6Q606.74-22.6 604.54-20 602.34-17.4 602.34-13.1L602.34-13.1Q602.34-10.5 603.44-8.28 604.54-6.05 606.41-4.73 608.29-3.4 610.69-3.4ZM650.69-2.5L647.59 0.5 634.14-13.35 634.14 0 629.64 0 629.64-37 634.14-37 634.14-15.85 645.89-26.5 648.49-23.65 638.44-14.75 650.69-2.5ZM680.58 0L675.63 0 667.43-24.8 671.58-26.25 678.28-5.1 684.38-24.15 689.23-24.15 695.18-5.1 701.83-26.25 705.83-24.8 697.58 0 692.63 0 686.63-19.35 680.58 0ZM715.58 0L711.08 0 711.08-26 715.58-26 715.58 0ZM713.33-30.45L713.33-30.45Q712.03-30.45 711.1-31.4 710.18-32.35 710.18-33.6L710.18-33.6Q710.18-35.05 711.03-35.9 711.88-36.75 713.33-36.75L713.33-36.75Q714.63-36.75 715.55-35.83 716.48-34.9 716.48-33.6L716.48-33.6Q716.48-32.2 715.63-31.33 714.78-30.45 713.33-30.45ZM732.68 0.6L732.68 0.6Q728.93 0.6 726.75-1.88 724.58-4.35 724.58-8.95L724.58-8.95 724.58-21.15 720.08-21.15 720.08-25.05 724.68-25.05 725.63-33.25 729.08-33.25 729.08-25.05 736.28-25.05 736.28-21.15 729.08-21.15 729.08-8.6Q729.08-5.7 730.3-4.55 731.53-3.4 733.23-3.4L733.23-3.4Q734.48-3.4 735.6-3.8 736.73-4.2 737.68-4.75L737.68-4.75 738.93-1.15Q737.93-0.55 736.23 0.03 734.53 0.6 732.68 0.6ZM747.92 0L743.42 0 743.42-37 747.92-37 747.92-21.85Q749.32-23.9 751.47-25.25 753.62-26.6 756.52-26.6L756.52-26.6Q760.92-26.6 763.1-23.95 765.27-21.3 765.27-16.95L765.27-16.95 765.27 0 760.77 0 760.77-16.45Q760.77-19.25 759.47-20.95 758.17-22.65 755.82-22.65L755.82-22.65Q753.52-22.65 751.45-21.03 749.37-19.4 747.92-17.2L747.92-17.2 747.92 0ZM809.52 0L788.52 0 788.52-35 809.52-35 809.52-30.9 793.27-30.9 793.27-20.25 807.27-20.25 807.27-16.25 793.27-16.25 793.27-4.1 809.52-4.1 809.52 0ZM824.72 0.6L824.72 0.6Q821.47 0.6 818.82-1.05 816.17-2.7 814.59-5.73 813.02-8.75 813.02-12.85L813.02-12.85Q813.02-16.75 814.59-19.85 816.17-22.95 818.94-24.78 821.72-26.6 825.32-26.6L825.32-26.6Q827.57-26.6 829.39-25.83 831.22-25.05 832.57-23.9L832.57-23.9 832.57-26 836.67-26 836.67-6.3Q836.67-4.4 837.59-3.83 838.52-3.25 839.62-3.25L839.62-3.25 838.67 0.25Q833.87 0.25 832.87-3.65L832.87-3.65Q831.72-2.05 829.74-0.73 827.77 0.6 824.72 0.6ZM825.72-3.4L825.72-3.4Q827.62-3.4 829.32-4.33 831.02-5.25 832.17-6.65L832.17-6.65 832.17-20.6Q830.82-21.55 829.19-22.13 827.57-22.7 825.77-22.7L825.77-22.7Q823.37-22.7 821.54-21.48 819.72-20.25 818.67-18.07 817.62-15.9 817.62-13L817.62-13Q817.62-10.2 818.67-8.03 819.72-5.85 821.57-4.63 823.42-3.4 825.72-3.4ZM852.61 0.6L852.61 0.6Q849.66 0.6 847.29-0.15 844.91-0.9 843.36-2.1L843.36-2.1 845.26-5.85Q846.56-4.75 848.54-4.03 850.51-3.3 852.76-3.3L852.76-3.3Q855.56-3.3 856.99-4.23 858.41-5.15 858.41-6.6L858.41-6.6Q858.41-7.65 857.89-8.45 857.36-9.25 855.96-10.03 854.56-10.8 851.91-11.7L851.91-11.7Q848.26-12.95 846.44-14.68 844.61-16.4 844.61-19.45L844.61-19.45Q844.61-22.45 847.24-24.53 849.86-26.6 854.51-26.6L854.51-26.6Q857.01-26.6 858.96-26.08 860.91-25.55 862.46-24.75L862.46-24.75 861.21-21.05Q859.86-21.85 858.14-22.35 856.41-22.85 854.31-22.85L854.31-22.85Q851.71-22.85 850.36-21.8 849.01-20.75 849.01-19.5L849.01-19.5Q849.01-18.3 850.06-17.45 851.11-16.6 854.16-15.6L854.16-15.6Q859.11-13.95 861.06-11.95 863.01-9.95 863.01-6.95L863.01-6.95Q863.01-3.45 860.19-1.43 857.36 0.6 852.61 0.6ZM879.41 0.6L879.41 0.6Q873.81 0.6 870.54-2.98 867.26-6.55 867.26-13L867.26-13Q867.26-16.9 868.74-19.98 870.21-23.05 872.86-24.83 875.51-26.6 879.01-26.6L879.01-26.6Q882.76-26.6 885.24-24.98 887.71-23.35 888.96-20.6 890.21-17.85 890.21-14.55L890.21-14.55Q890.21-12.8 890.06-11.15L890.06-11.15 871.86-11.15Q872.31-7.5 874.41-5.45 876.51-3.4 879.96-3.4L879.96-3.4Q882.21-3.4 884.01-3.88 885.81-4.35 887.46-5.1L887.46-5.1 888.51-1.25Q886.71-0.45 884.46 0.08 882.21 0.6 879.41 0.6ZM871.81-14.8L871.81-14.8 886.06-14.8Q886.06-18.6 884.16-20.65 882.26-22.7 878.91-22.7L878.91-22.7Q876.01-22.7 874.11-20.68 872.21-18.65 871.81-14.8ZM901.86-10.35L898.16-10.35 897.51-24 897.51-36.45 902.51-36.45 902.51-24 901.86-10.35ZM900.06 0.6L900.06 0.6Q898.71 0.6 897.71-0.4 896.71-1.4 896.71-2.75L896.71-2.75Q896.71-4.3 897.61-5.2 898.51-6.1 900.06-6.1L900.06-6.1Q901.36-6.1 902.38-5.1 903.41-4.1 903.41-2.75L903.41-2.75Q903.41-1.25 902.46-0.33 901.51 0.6 900.06 0.6Z" opacity="1" transform="matrix(1,0,0,1,0,0)" fill="#8d021f" class="slogan-text-1" data-fill-palette-color="secondary" id="text-1"></path></svg></g></svg></g></svg></g></svg></g><g transform="matrix(1,0,0,1,71.14113978843721,0)"><svg viewBox="0 0 49.71772042312557 49.40698467048103" height="49.40698467048103" width="49.71772042312557"><g><svg xmlns="http://www.w3.org/2000/svg" xml:space="preserve" viewBox="0 0 100 99.375" id="icon-0" width="49.71772042312557" height="49.40698467048103" x="0" y="0" class="icon-icon-0" data-fill-palette-color="accent"><path d="M10.924 84.883v14.492H3.333V46.328c0-2.096 1.699-3.815 3.795-3.815a3.795 3.795 0 0 1 3.795 3.815v31.367H96.55v21.68h-7.656V84.883z" fill="#8d021f" data-fill-palette-color="accent"></path><path d="M22.624 61.614a6.87 6.87 0 0 0 6.869-6.888 6.864 6.864 0 0 0-6.869-6.862c-3.815 0-6.888 3.073-6.888 6.862a6.874 6.874 0 0 0 6.888 6.888" fill="#8d021f" data-fill-palette-color="accent"></path><path d="M96.667 71.992l-0.026-9.466c-0.026-3.008-2.552-5.078-5.481-5.443l-54.05-5.377c-0.117-0.026-0.208-0.078-0.306-0.078A3.387 3.387 0 0 0 33.425 55v10.208H19.284a3.4 3.4 0 0 0-3.398 3.398 3.38 3.38 0 0 0 3.398 3.386zM100 24.883L50.065 0.065 50.045 0 50 0.026 49.955 0l-0.02 0.065L0 24.883l4.16 8.372L50 10.469l45.84 22.786z" fill="#8d021f" data-fill-palette-color="accent"></path></svg></g></svg></g><g></g></svg></g></svg></g></svg></g></svg></g><defs></defs></svg><rect width="320" height="360" fill="none" stroke="none" visibility="hidden"></rect></g></svg></g></svg>